<?xml version="1.0" encoding="utf-8"?>
<!-- Generator: Adobe Illustrator 23.0.3, SVG Export Plug-In . SVG Version: 6.00 Build 0)  -->
<svg version="1.1" id="flag-icon-css-ky" xmlns="http://www.w3.org/2000/svg" xmlns:xlink="http://www.w3.org/1999/xlink" x="0px"
	 y="0px" viewBox="0 0 640 480" style="enable-background:new 0 0 640 480;" xml:space="preserve">
<style type="text/css">
	.st0{fill:#B40000;}
	.st1{fill-rule:evenodd;clip-rule:evenodd;fill:#000066;}
	.st2{fill:#FFFFFF;}
	.st3{fill:#CC0000;}
	.st4{fill-rule:evenodd;clip-rule:evenodd;fill:#FFFFFF;}
	.st5{fill-rule:evenodd;clip-rule:evenodd;fill:#FEC500;stroke:#6D6666;stroke-width:1.4;}
	.st6{fill-rule:evenodd;clip-rule:evenodd;fill:#FEC500;stroke:#6D6666;stroke-width:1.5;}
	.st7{fill-rule:evenodd;clip-rule:evenodd;fill:#00389B;}
	.st8{fill-rule:evenodd;clip-rule:evenodd;fill:#005120;stroke:#000000;stroke-width:1.5;}
	.st9{fill-rule:evenodd;clip-rule:evenodd;stroke:#000000;stroke-width:1.5;}
	.st10{fill-rule:evenodd;clip-rule:evenodd;fill:#001707;stroke:#000007;stroke-width:1.5;}
	.st11{fill-rule:evenodd;clip-rule:evenodd;fill:#D40F0F;}
	.st12{fill-rule:evenodd;clip-rule:evenodd;fill:#FDDC59;}
	.st13{fill-rule:evenodd;clip-rule:evenodd;fill:#FDC400;}
	.st14{fill-rule:evenodd;clip-rule:evenodd;fill:#D40F0F;stroke:#000000;stroke-width:1.5;}
	.st15{fill-rule:evenodd;clip-rule:evenodd;fill:#0062BB;}
	.st16{fill-rule:evenodd;clip-rule:evenodd;fill:#FDC400;stroke:#000000;stroke-width:0.7;}
	.st17{fill-rule:evenodd;clip-rule:evenodd;}
	.st18{fill-rule:evenodd;clip-rule:evenodd;fill:#000039;stroke:#000000;stroke-width:0.4;}
	.st19{fill:none;stroke:#000000;stroke-width:0.8;}
	.st20{fill:none;stroke:#000000;stroke-width:1.5;}
	.st21{fill-rule:evenodd;clip-rule:evenodd;fill:#003017;}
	.st22{fill:none;}
</style>
<path class="st0" d="M0,0h640v480H0V0z"/>
<path class="st1" d="M0,0h376.5v242.3H0V0z"/>
<g>
	<path class="st2" d="M0,0v27l334.4,215.3h42.1v-27L42.1,0H0z M376.5,0v27L42.1,242.4H0v-27L334.4,0H376.5z"/>
	<path class="st2" d="M156.9,0v242.3h62.7V0H157H156.9z M0,80.8v80.7h376.5V80.8H0z"/>
	<path class="st3" d="M0,97v48.4h376.5V96.9L0,97L0,97z M169.4,0v242.3h37.7V0H169.4z M0,242.3l125.5-80.8h28L28.2,242.3H0z M0,0
		l125.5,80.8h-28L0,18V0z M223,80.8L348.3,0h28.1L251,80.8H223z M376.5,242.3L251,161.5h28l97.5,62.7V242.3z"/>
</g>
<path class="st4" d="M448.3,179.1c-1,0.6-3,2.5-5,1.9s-6.6-8.6-11.6-7.4c-5,1.3-8.1,3.1-10.1,3.1s-7.6,1.8-7.6,6.7s0.5,8.6,1.5,8.6
	s2.5-3.1,2.5-3.1s0.5,6.1,4,6.1s11.2,0.6,11.7,2.5c0.5,1.8-3.5,6-2.5,9.7s5.5,9.8,5.5,9.8s-6.5,4.8-6.5,8s1,6,1,6l-29.3,1.2
	c0,0-2,86.7-1,93.4l3.5,23.2c0,0-6.6-2.2-12.1,3.3c-5.6,5.5-25,15-25.5,19.2c-0.5,4.3-2.3,8-0.3,11s9.2,11.4,7.1,11
	c-6.8-1.1-9.3-10.8-13.9-14.3c-4.5-3.5-13.3-2.8-14.4,0.9c-1,3.7-0.5,9.8,0,11s6.1,20.7,7.6,25s17.4,10.7,24.5,10
	c13.4,0.4,19.4-5.7,20-5.1c0.4,0.6,28.7,29.8,86.8,29.9c45.2,0,79.2-29.3,79.2-28.7c0,0.6,18.7,6.1,25.3,4.3
	c6.5-1.9,16.1-6.1,18.1-10.4s7.6-26.2,8.1-29.9s0-8-4.5-9.2s-7-0.9-9.6,0.3s-3.3,4.6-7,10.7c-2.1,1.9-7.4,6.7-5.9,5.5
	s4.8-10.3,5.3-13.4c0.5-3,2-8.5-1.5-11.6c-3.5-3-9-4.3-15.1-8.8c-6-4-10.6-10.7-14.2-10.7c-3.5,0-7.5-1.8-7-1.8s4.5-9,3.5-18
	c-1-9.2,0.5-96.8,0-96.8s-25.2,1.9-25.2,0.6s2-9.7,0-15.2s-10.7-9.2-8.1-10.4c2.5-1.2,13.6-4.3,13-9.1c-0.4-5-7.5-4.3-10.5-6.1
	c-3-1.9-12.1-10.4-13.1-10.4s26.2-16.5,24.2-16.5s-12.6-3-16.2-1.2c0-3,14.7-12.2,12.2-13.4c-2.6-1.3-14.2-2.5-11.1-3
	c3-0.7,4-8,3.5-8l-13.1,1.8c0,0-3-4.3-4-4.3s-5.6,2.5-5.6,2.5l-2.6-6.7l-5.5,3.6l-2.5-3c0,0-4.6,1.2-4.6,0c0.2,0-0.5-3-1.2-3
	s-5.7,3.8-5.9,3.6c-0.2-0.2-5.7-8-5.7-7.8l-4.1,14.7c-0.2,0-4,0.4-4.1,0.6c-0.2,0.3-20-11.4-19.8-11.2l5.1,11.2c0,0-4.2,2.4-4.2,2.6
	l0.7,5l-13.2-4.5c0,0,5,10,4.6,10l-9.6,0.5l4.4,8.4l-1.6,5C435.1,168.5,449.3,178.5,448.3,179.1L448.3,179.1z M532.6,391.5
	c1.3,1.8,8.1,10.4,7.1,10.4s-18,11.3-24.7,13.4c-9.2,2.3-18.5,4.2-27.8,5.8c1.3-0.3,20-10.5,27.5-15.4
	C521.1,401.6,527.2,396.8,532.6,391.5L532.6,391.5z M427.1,391.2c-1,1.2-5.8,10.7-5.8,10.7s13.9,9.7,24.2,13.4
	c10.4,3.6,28,4.9,27,4.6s-22.1-9.8-28.2-14.7C438.3,400.3,427.3,391.2,427.1,391.2z"/>
<g>
	<path class="st5" d="M438.1,165.3l10.9,7.9c2,1.5,8.6,8.2,9.1,7.9c0.5-0.3,4.1-3.7,4.1-3.7s-7.3-7-11.9-8.5
		C445.7,167.5,438.1,165.9,438.1,165.3L438.1,165.3z"/>
	<path class="st5" d="M436.9,158.2c0.8,0,14.6,8.5,18.9,12.8s6,9.8,6.6,9.8c0.5,0,7.1-1.2,6.8-1.2c-0.2,0-3-11-9.3-14.4
		C453.6,161.9,437.2,158.2,436.9,158.2z"/>
	<path class="st5" d="M502.3,136.2c-0.2,0-2.8,9.2-3.5,11.9c-0.8,2.8-2,8.5-2,8.5s-11.1,1.3-10.6-0.3
		C486.6,154.8,503,136.2,502.3,136.2z"/>
	<path class="st5" d="M439.4,147.3c0,0,13.1,10.7,17.7,16.8c4.5,6.1,9.1,16.8,9.3,16.8c0.3,0,12.4-3.1,12.4-2.7
		c0,0.3-14.1-17.1-20.9-22.3C451,150.6,439.7,147.9,439.4,147.3L439.4,147.3z"/>
	<path class="st5" d="M453.1,144.4c0,0,6.5,12.2,7.8,16.5c1.6,5.1,3.3,10.2,5,15.2h10.3c0,0-5-13.7-10.6-20.4
		C460.1,149,453.3,145,453.1,144.4z"/>
	<path class="st5" d="M456.6,137.7c0.2,0.9,9.6,11.6,11.9,18.6c1.6,5.2,2.9,10.5,4.1,15.9l9.1-2.7c0,0-8.1-18-13.1-22.9
		C463.4,141.7,457.1,138.3,456.6,137.7L456.6,137.7z"/>
	<path class="st5" d="M532.1,166.5c0,0-18.9,2.4-25.8,4.6c-6.8,2.1-10.6,10.1-10.6,10.1s8.8,4,9.3,3.3c0.5-0.6,5.8-7,11.6-9.5
		C522.5,172.6,532.6,166.8,532.1,166.5z"/>
	<path class="st5" d="M531.3,151.5c-0.5,0.3-15.7,15.3-20.4,20.1c-4.8,4.9-9.3,10.1-9.8,10.4c-0.5,0.3-9.9-1.6-9.4-2.2
		c0.5-0.6,13.9-13.7,22.7-19.5C523.2,154.6,530.5,152.2,531.3,151.5z"/>
	<path class="st5" d="M527.5,140.8c-1.5,2.2-16.4,16.8-20.4,22c-4.1,5.2-10.6,14.3-10.6,14.3s-7.8-4.3-7.3-6.1
		c0.5-1.8,11.1-12.5,18.7-18.6C515.4,146.3,528.3,141.4,527.5,140.8L527.5,140.8z"/>
	<path class="st5" d="M512.4,139.7c-3.8,4.7-7.4,9.6-10.9,14.6c-1.7,3-7.1,16.5-7.1,16.5s-7.8-8.2-7.8-8.5s9.8-12.8,15.7-17.7
		C508.1,139.6,512.6,140.5,512.4,139.7L512.4,139.7z"/>
	<path class="st6" d="M490.5,156.3c0.2,2.1-1,4.1-2.7,4.4s-3.4-1.2-3.6-3.3c0-0.4,0-0.7,0-1.1c0.2-2.1,1.8-3.7,3.5-3.5
		C489.1,153,490.3,154.4,490.5,156.3L490.5,156.3z M496.9,161.5c0,1.9-1.4,3.5-3.2,3.5s-3.2-1.6-3.2-3.5s1.4-3.5,3.2-3.5
		S496.9,159.5,496.9,161.5z M482.6,157.6c0,1.9-1.7,3.5-3.9,3.5c-2.1,0-3.9-1.5-3.9-3.5c0-1.9,1.8-3.5,3.9-3.5
		C480.8,154.1,482.6,155.7,482.6,157.6z"/>
	<path class="st6" d="M493,164.7c0,3.7-2,6.7-4.5,6.7s-4.5-3-4.5-6.7s2-6.7,4.5-6.7S493,161,493,164.7L493,164.7z M480.8,164.9
		c0,2.9-2,5.2-4.5,5.2s-4.5-2.3-4.5-5.2s2-5.2,4.5-5.2C478.9,159.7,480.8,162.1,480.8,164.9z"/>
	<path class="st6" d="M474.8,169c0,2.5-1.5,4.5-3.4,4.5c-1.9,0-3.4-2-3.4-4.5c0-2.5,1.5-4.5,3.4-4.5
		C473.2,164.5,474.8,166.5,474.8,169L474.8,169z M499.8,168.6c0,3-2.3,5.4-5.2,5.4c-2.9,0-5.2-2.4-5.2-5.4c0-3,2.3-5.4,5.2-5.4
		C497.5,163.2,499.8,165.6,499.8,168.6z M487.3,160.8c0,1.8-1.8,3.3-4.1,3.3s-4.1-1.5-4.1-3.3c0-1.8,1.8-3.2,4.1-3.2
		C485.5,157.6,487.3,159.1,487.3,160.8z"/>
	<path class="st6" d="M488,167.9c0,2.6-2.6,4.7-5.7,4.7s-5.7-2.1-5.7-4.7c0-2.6,2.5-4.7,5.7-4.7C485.5,163.2,488,165.3,488,167.9z
		 M502.6,176.3c0,3.2-2.4,5.8-5.3,5.8s-5.4-2.6-5.4-5.8s2.4-5.8,5.4-5.8C500.2,170.5,502.6,173.1,502.6,176.3z M473.4,174.9
		c0,2.1-1.4,3.9-3,3.9s-3-1.7-3-3.9c0-2.2,1.4-3.9,3-3.9S473.4,172.7,473.4,174.9L473.4,174.9z"/>
	<path class="st6" d="M494.8,174.2c0,2.7-2.1,5-4.6,5c-2.6,0-4.7-2.2-4.7-5s2.1-5,4.7-5S494.8,171.4,494.8,174.2L494.8,174.2z
		 M480.1,174c0,2.4-1.8,4.3-4.1,4.3c-2.3,0-4.1-1.9-4.1-4.3s1.8-4.3,4.1-4.3C478.3,169.7,480.1,171.6,480.1,174z"/>
	<path class="st6" d="M487.3,175.3c0,2.6-1.9,4.7-4.3,4.7c-2.3,0-4.3-2.2-4.3-4.7c0-2.6,1.9-4.7,4.3-4.7
		C485.4,170.5,487.3,172.6,487.3,175.3L487.3,175.3z M468.7,146.8c1,0,8.6,3,8.6,3s-9.3,4.3-7.9,3.9c1.4-0.4,10.3-1.7,9.6-1.7
		c-0.7,0-7.9,8.2-5.7,7.8c2.1-0.4,6.4-5.6,6.8-5.6c0.4,0,4.7,8.2,5,7.8c0.3-0.4,0-8.2,0.3-8.2c0.3,0,8.9,5.2,8.2,4.7
		c-2-1.9-3.7-4.1-5.3-6.5c0.4,0,11.8,1.3,11.1,0.9l-7.5-4.3c0,0,5-5.6,3.9-5.6c-1.1,0-9.3,5.6-8.6,5.2c0.7-0.4,8.9-11.7,8.9-11.7
		l-8.2,4.7c0,0,1.4-6.9,0.7-6.5c-0.7,0.4-6.4,9.1-6.8,9.1c-0.3,0-1.8-8.6-1.8-8.6s0.3,9.5-1.8,9.9
		C476.2,145.5,468.8,147.2,468.7,146.8L468.7,146.8z"/>
</g>
<g>
	<path class="st7" d="M445.5,216.5c0.2,0.9,5.9,16.4,14.7,16s12.3-3,11.9-3.2c-2.9-2.2-5-5.1-6.2-8.5c-1.1-2.6-1.9-5.3-2.5-8
		L445.5,216.5z M476.7,210.5c0,0,6.5,15.3,9.3,17.5c2.9,2.1,9.5,3.8,12.3,3.6c2.9-0.2,6.3,0,6.3,0s-2.9-1.5-5.2-9.9l-3-11.2
		L476.7,210.5L476.7,210.5z M516,216.1c0,0-1.2,11.2,0,14c1.3,2.8,7.5,8,7.5,8s7.5-1,7.7-8c0-4.6-0.8-9.1-2.5-13.3L516,216V216.1z"
		/>
	<path class="st8" d="M439.4,196.5c0,0,0.3,1.7,0,3c-0.3,1.3-3.4,4.7-3.4,7.5c0,2.8,3.6,11.4,14.4,11.7c10.9,0.2,24.7-7.1,24.5-7.3
		c-0.2-0.2-26.1-21.2-26.4-20.9C448.1,190.7,439.4,196.9,439.4,196.5L439.4,196.5z M511.3,211.4c0,0,2.3,7.6,3.2,8.4
		c0.9,0.9,1.2,2.6,1.4,2.6s15,3.9,15,3.9s1.4-4.9-0.7-8.8c-2.1-3.9-10.2-14-10.2-14S511.3,211.4,511.3,211.4z M521.5,202.1
		c0.3,0,3.9,3.7,6.8,1.7c2.9-1.9,7.5-7.1,7.5-7.1s-3.9,1.5-6.8,1.3C526.2,197.8,521.7,202.3,521.5,202.1z"/>
	<path class="st8" d="M438.9,197.3c0,0-1.1-3.6-3.9-3.9c-2.9-0.2-8,0.4-9.8-1.3c-1.8-1.7-2.3-5.8-3.2-5.6c-0.9,0.2-3.2,0-3.4,0
		c-0.2,0-1.1-3.5,1.4-5.2c2.5-1.7,4.6-0.2,6-1.5s3.6-2.2,6.4-2.4c2.9-0.2,7.5,4.3,9.6,5.4c2.1,1.1,6.8,2.4,8.6,1.3
		c1.8-1.1,11.8-5.8,15.4-6c3.6-0.2,11.1-0.4,13.9-0.2c2.9,0.2,14.1,2,17.5,3.9c3.4,1.9,21.4,9.5,23.9,11.2c2.5,1.7,8,4.3,8,4.3
		s-9.8,11.7-14.7,13.6c-9.6,3-19.4,4.5-29.3,4.3c-9.1-0.6-16.2-1.7-23.2-6c-7-4.3-14.5-8.4-14.8-10.6c-0.4-2.2-0.2-4.9-0.2-4.9
		L438.9,197.3L438.9,197.3z"/>
	<path class="st8" d="M427.8,183.4c-0.4,0.2-2.1,1.1-1.8,1.5c0.4,0.4,1.1,1.7,3.2,1.5c2.1-0.2,4.5-1.7,4.5-1.7
		S431,183.1,427.8,183.4z"/>
	<path class="st9" d="M427.6,183.8v2.4c0,0,2.5,0.9,2.5,0.2c0-0.6,0.2-2.2-0.4-2.2C429.2,184.2,427.8,184,427.6,183.8L427.6,183.8z"
		/>
	<path class="st10" d="M452.6,185.6c0.6-1.4,0-3.2,3.7-5.3c3.7-2.2,10-1.6,10-1.6s-1.8,1.7-1.9,3.5s0.1,2.5,0.1,2.5
		s-3.5-1.4-6.1-0.6C455.7,184.9,452.7,185.8,452.6,185.6L452.6,185.6z M469,178.1c-0.4,0.2-3.2,4-2.9,5.1c0.3,1.1,4.1,3.9,5.2,3.6
		c1.2-0.2,6.7-3.4,7-5s0.6-3.7,0.1-4.2C478.1,177.2,469.1,178.2,469,178.1z M481.1,177.5c-0.7,0.8-0.5,4.9-0.2,5.3
		c0.3,0.5,4.6,5.8,5.6,6c1,0.3,8-0.6,8.5-1.5c0.6-0.9,2.3-4.8,1.7-5.7c-0.5-0.9-2-2.2-6.7-3.3C485.3,177.2,482.6,177.2,481.1,177.5z
		 M498.9,182.6c1.1,0.7,7.8,4.6,11.7,7.7c3.9,3.1,5.5,6.7,6.6,7c1.1,0.3,5.7-3,5.9-4c0.2-0.9-5.6-5.8-9.5-8
		C509.7,183.1,498.9,182.8,498.9,182.6z M497.5,185.9c-0.6,0.6,7.1,16.7,8.5,17.2c1.5,0.6,10.2-3.1,10-4.3s-2.4-3.7-7.8-7.2
		C503,187.9,498.6,185.6,497.5,185.9z M488.1,191.7c-1.2,0.9-3.1,15.3-1.9,16c1.2,0.7,16-1.8,16.5-3.3c0.6-1.7-6.1-14.4-8-14.4
		C492.7,190,489.2,190.6,488.1,191.7L488.1,191.7z M472.8,188.7c-1.6,1.7-1.2,15.2-0.6,16c0.7,0.9,9.5,3.6,10.4,2.6
		c0.9-1,2.2-16.1,1.3-17.2c-0.9-1.2-3.3-3.9-5.2-4.1C476.8,185.7,473.7,188.2,472.8,188.7z M453,188.5c-1.4,1.4-1.5,4.9,0.1,5.6
		c1.6,0.6,5.5,2.7,9.1,4.6c3.7,1.9,5.7,4.2,6.8,4.1s2.1-13.5,0.9-14.2c-2.4-1-5-1.5-7.6-1.3C459.2,187.3,456.1,187.7,453,188.5
		L453,188.5z"/>
</g>
<path class="st11" d="M388,359.2c2.6-2.5,6.6-8.7,12-9c5.5-0.2,11.3,4.8,11.3,4.8s5.7,23.5,5.4,23.5c-0.2,0-9.5,6.7-9.7,6.7
	c-0.3,0-4-9.2-7.5-8.3c-3.5,0.8-3.2,13.4-3.8,12.6c-0.5-0.9-15.2-18.2-14.6-18.8C381.6,370.1,388.3,360,388,359.2L388,359.2z
	 M539.9,356.2c1.7-0.4,9.5-6.2,15-6c5.4,0.3,8.6,2.8,11.4,5.4c3,2.5,6.4,9,6.4,9s-7,19-7.5,19s-3.5,1.6-4,0.2s-2.3-5.8-5.8-6.4
	c-3.4-0.6-4.3,6.2-4.3,6.2L539.9,356V356.2z"/>
<path class="st12" d="M543.6,362c0,1.7,10.7,28,27.9,33c17.3,5.1,22.7-4.7,24.7-8c2-3.4,9.2-3.1,9.2-3.1s-1.7,24.6-4.6,27.7
	c-2.8,3-5.1,9.8-21.2,10c-16.1,0.3-30.8-15-35.7-19.5c-5.6-6.5-10.2-13.8-13.8-21.6C527.5,375.2,543.9,362.5,543.6,362L543.6,362z
	 M356,414.4c0.3,0,7.8,8.1,18.8,7.3c10.9-0.9,29.6-7.3,38.2-18.5c5.4-7.1,9.8-15,13-23.3c0,0-12.7-22.4-13-22.4s-1.4,7.3-3.7,12
	c-2.3,4.8-8.7,18.3-19.3,22.5c-10.6,4.2-10.6,5.9-15,5.3c-5.5-1.8-10.7-4.3-15.5-7.6L354,403c0,0-1.1,8.7,2,11.5V414.4z"/>
<path class="st12" d="M387.8,358.4c-0.8,0-21.2,11.1-20.4,15.9c0.9,4.7,35,72,108.2,72.9c73.3,0.8,118-61,114.8-71.3
	c-3.3-10.3-26-22.2-26-22.2s5.6,4.7,4.8,11c-0.8,6.4-26,61-89.5,59.5c-63.4-1.6-93.5-50-93.5-55.5S389.4,360,387.8,358.4
	L387.8,358.4z"/>
<path class="st11" d="M586.2,407.4c1.7-1.4,12.3-30.5,18.4-29.7c6,0.8,4,9.5,3.4,11.8c-0.5,2.2-6.6,22.4-6.6,22.4s0.3-4.8-3.7-6
	S587,407.9,586.2,407.4L586.2,407.4z M356,414.7c0-1.6-4.8-7.2,0.9-8.7c5.7-1.6,13,1.5,13,1.5s-4-11.8-9-21.4
	c-4.9-9.5-6.5-7.9-10.6-6.3c-4,1.6-4,5.8-1.5,12.1C351.3,398.3,356,416.3,356,414.7z"/>
<path class="st13" d="M423.2,360.4l7-24l-19.6-15l24.6-0.6l8-23.6l8.1,23.6l24.6,0.4l-19.6,15.2l7.2,23.9L443.3,346L423.2,360.4z"/>
<path class="st4" d="M555.6,235.8v92c0.2,45-45.7,84.4-76.1,92.1c-30.5-7.6-76.3-47-76.2-92v-92L555.6,235.8L555.6,235.8z"/>
<path class="st14" d="M403.4,235.8l0.1,57.6c0,0,0.7-1.2,10.7-0.5c10,0.7,10.9,12.7,21.8,12.7c10.9,0,10.9-12.7,21.7-12.7
	s10.9,12.7,21.8,12.7s10.9-12.7,21.8-12.7c10.9,0,10.9,12.7,22.3,13.4c10.3-0.7,10.3-13.4,21.2-14.2l10.8,0.7v-57.1H403.4
	L403.4,235.8z"/>
<path class="st15" d="M403.3,312v19h11c10,0.8,10.8,12.8,21.7,12.8s10.8-12.8,21.7-12.8s11,12.8,21.8,12.8s10.9-12.8,21.7-12.8
	c10.8,0,10.3,12,21.8,12.8c10.3-0.8,10.8-12,21.8-12.8h10.8v-19h-10.8c-11,0-11,12.7-21.8,12.7S512.1,312,501.2,312
	s-10.8,12.7-21.7,12.7S468.6,312,457.7,312s-10.8,12.7-21.7,12.7S425,312,414.2,312H403.3L403.3,312z M406.6,350l7.6,19.1
	c10,0.8,10.9,12.7,21.8,12.7c10.8,0,10.8-12.7,21.7-12.7s11,12.7,21.8,12.7s10.9-12.7,21.7-12.7s10.3,12,21.8,12.7
	c10.3-0.7,10.6-12,21.5-12.7l7.8-19.3l-7.5,0.3c-11,0-11,12.7-21.8,12.7S512.1,350,501.2,350s-10.8,12.7-21.7,12.7
	S468.6,350,457.7,350s-10.8,12.7-21.7,12.7S425,350,414.2,350H406.6L406.6,350z M479.5,420c10.9,0,35.8-19.1,35.5-19.1
	c0.3,0-2.9-12.7-13.8-12.7s-10.8,12.7-21.7,12.7s-10.9-12.7-21.8-12.7s-13.6,12.7-13.7,12.7c-0.5,0,24.6,19,35.5,19L479.5,420z"/>
<path class="st16" d="M423.2,279.8c1.4,0,12.5,1.6,20.4,1c8.1-0.5,11.1-3.3,11.1-3.8v-1.6h10.5c0,0,1.8,7.4,0.6,8
	c-1.2,0.5-4.4,2.7-5,2.7c-0.6,0,0-3.8-1.2-2.6s-1.8,2.6-1.8,2.6s-1.4-1.6-2-1.6c-0.6,0-1.8,1.6-1.8,1.6s0-1.6-0.6-1.6
	c-0.6,0-3.8,2.6-3.8,2.6l-3-2.1c0,0-2,2.6-2.6,2.6s-4.4-2.1-4.4-2.1l-6,3.3c0,0,0-4.8-1.4-4.3c-1.2,0.5-8,0.5-8,0.5s-2,3-2.6,3
	c-0.6,0-3-2.6-2.4-2.6c0.6,0,1.8-1.6,1.2-2.2c-0.6-0.5-3.8,0-3.8-0.5s-1.2-3.7-0.6-3.7l3,0.5v-3.3h3.2l0.6,3.3V279.8z"/>
<path class="st16" d="M434.5,249.1c-0.8,0-5,4.3-4.5,9.1c0.8,4.8,11.3,11.7,11.3,11.7s5.6-2.1,7.4,0c1.8,2.1,1.8,8.6,1.2,8.6
	s-8,1.7-8,0.7c0-1.2,0-2.2-0.6-2.2l-7.5,0.5l0.6-2.1l-6-1l2.4-2.2c0,0-9.9-3.8-9.3-3.8c0.6,0,4.4-2.1,4.4-2.1l-7.5-4.3h4.5
	c0,0-6.3-4.3-5.7-4.3l3.8,0.5L419,254h1.8l-1.8-3.1l3-1.2l2,2.7l-0.8-6.5l4.5,0.7v5.2c0,0,1.8-3.1,1.8-3.7c0-0.5,5.6,2.2,4.8,1
	H434.5z"/>
<path class="st17" d="M530,282.4c-0.8,0.7-3.1,2.2-3.1,2.2l5-0.4C531.1,283.7,530.4,283.1,530,282.4L530,282.4z M534.4,285
	c-0.3,0.4-1.2,4.6-0.6,4.3c1.1-1,2.2-2.2,3.1-3.4L534.4,285z M541.5,285.5c0.8,0.7,4.3,3.8,3.9,3.1c-0.5-0.7-1-3.5-1.3-3.6
	S541.8,285.8,541.5,285.5L541.5,285.5z M479.4,281.1c-0.5,0.1-4.3,2.7-4.3,2.7l6.1-1C480.9,282.8,479.2,281.5,479.4,281.1
	L479.4,281.1z M483.4,284.3c-0.6,0.6-2.6,4.3-1.9,4.2c1.5-0.7,2.9-1.6,4.2-2.6L483.4,284.3L483.4,284.3z M480.9,279.1l-3.5-1.5
	l4.3-1L480.9,279.1z M419.9,277.4l-4.7-3.3l5.9,1.6L419.9,277.4L419.9,277.4z M415.9,279.5c-0.7,0-6.5,3.2-6.4,3.2s8.2,0.2,8,0
	c-0.1-0.1-1.3-3-1.7-3.2H415.9z M419.6,284.2c-1.8,1-3.4,2.1-5,3.4h7L419.6,284.2z M418.9,250.8c0,0-1.7-3.8-1.5-3.8l4.3,3
	L418.9,250.8z M423.6,246.1l0.4-2.4c0,0,4.2,2.8,4,2.8C427.9,246.5,423.9,246.5,423.6,246.1L423.6,246.1z M430,247.8l0.5-3.5
	c0,0,3.9,4.6,3.5,4.7C433.7,249.2,430.3,248.4,430,247.8z"/>
<path class="st16" d="M492,271.4c0,0.3,6.5,4.8,6.6,5.9c0,1-11.7,1.3-11.7,1.3s-3.5-2.2-4.5-2.1c-1.1,0-1.5,2.3-1.5,2.3l2.7,1.3
	l-5.3,0.3l1.5,2.6l4.1-0.3l-0.9,2.3c0,0,2.4,1.7,3,1.3c0.5-0.1,2-2.6,3.2-3c1.2-0.4,3.9-0.4,3.9-0.4s-2.1,3-1.1,3
	c0.9,0,5.1-3.1,5.1-3.1l1.1,2.9l3-3.3c0,0,0,2.6,0.5,2.6c0.5,0,4.8-3.3,4.8-3.3s3.5,3.7,3.9,3.4c0.5-0.3,0.9-3.9,1.5-3.9
	c0.6,0,3.3-0.4,3.3-0.7s-2-1.3-2.3-3.3c-0.3-2,0.3-6.3,0.2-6.3S492.3,271.8,492,271.4z"/>
<path class="st16" d="M459.2,263.1h60.5c6,0,11.7-2.1,11.7-5.4c0-3.3-9.9-3.8-13.5-2.6c-3.8,1-19.8,7.4-26.6,6.9s-13.1-4.3-13.7-8.1
	c-0.6-3.8,3-6.9,9.9-6.9s15.5,2.1,17.3,1.6c1.8-0.5,6.2-4.8,8-5.4c2-0.5,7.5-1,7.5-1l-2.6,1.6l8.1-1.6c0,0-6.2,5.9-12.5,7.4
	c-6,1.7-19.1,1-24,1s-7.5-0.5-6.8,2.7c0.6,3.3,4.4,5.4,7.5,4.8c3-0.5,12.2-3.3,12.2-3.3l-2.4-1.6l11.1-0.5c0,0-0.6-1.6,0-1.6
	l6.2,0.5c0,0-3.8-1.7-3-1.7s3,0,8,0.5c5,0.5,15.5,2.2,14.9,6.5c-0.8,4.3-4.5,8-8.7,8c-4.2,0-8-1-8,0.7c0,1.6,5,2.6,8,2.6
	c3,0,6.8-2.1,7.5-2.1s1.8,3.1,2.4,3.1s4.4-1,4.4-1l-2.6,5.9l4.4,1c0,0-2.4,2.2-1.8,2.2s4.2,0,4.2,0.5c0,0.5-4.8,3.8-4.8,4.3
	c0,0.5,3.6,2.1,3.6,2.1s-2.4,3.3-3,2.7l-3-3.3c0,0-0.8,2.2-2,2.2c-1.2,0-3.8-0.5-3.8-0.5s1.8-3.3,1.2-3.3c-0.6,0-3.6,2.1-3.6,1.6
	l-2-1.6c0,0,5-1.7,5-4.3c0-2.6-2-5.1-11-5.5c-9-0.4-9,1.8-15.8,1.6c-6.6-0.3-6.6-2.6-11.6-2.6c-5,0-20.1,5.5-27.3,5.2
	c-7.1,0-15.9-0.4-15.6-0.7C453.5,275.9,459,263.5,459.2,263.1z"/>
<path class="st16" d="M447.4,260.1c-0.6,0.3-6,0.9-6.3,5.9c-0.3,5,0.5,5,1.1,4.7s1.8-4.6,1.8-4.6s-1.8,5.9,0.2,7.2
	c1.3,0.9,2.7,1.5,4.2,2l0.8-4.7c0,0-1.5,4.6,2.3,6.1c3.6,1.6,5.1,0.4,4.7-0.8c-0.4-1.4-0.9-2.9-1.4-4.3l3,3.1
	c0.3,0.3,1.5,2.3,5.4,1.3c3.6-0.8,1.1-3,1.1-3l-4.5-3.1c0,0,4.5,4,6.6,2.6c2.1-1.4-1.5-4.7-1.5-4.6c0,0.1,3,4.6,4.2,1.8
	s-1.8-3.7-2.7-6.4c-0.9-2.6-1.7-2.9-0.8-4.6c0.9-1.6,1.1-4.7,1.1-4.7s3.9,0.9,3.6-2c-0.3-2.9-4.2-3.5-5-3.7c-0.8,0-0.6-2.9-0.9-2.7
	c-0.3,0-2.9,1.7-2.9,1.7s-2.1-4.4-2.6-4.2c-0.5,0.3-3,2.6-4.8,2.6c-1.8,0.3-3,2.6-3,2.6s-6.5-2.7-6.3,1.7c0.2,4.4,3.9,3.3,3.9,3.4
	S448,259.8,447.4,260.1L447.4,260.1z"/>
<path class="st17" d="M450.9,253.3c0.7-0.3,1.8-1.2,3-1.1s3.4,1,2.4,1.6c-1,0.5-1.8,0.8-3,0.5C452.3,254,451.3,253.5,450.9,253.3z
	 M463.5,253.1c-0.8-0.2-1.9-1.1-3.2-1s-3.2,1-2.2,1.6c0.8,0.5,1.8,0.7,2.8,0.5c1.2-0.3,2-0.9,2.6-1L463.5,253.1z"/>
<path class="st18" d="M453.7,261.1c0,0.7,0.6,6.3,0.9,5.9l2.6-5.7L453.7,261.1L453.7,261.1z"/>
<path class="st19" d="M452.2,261.3c0-1.7,1.2-1.6,3.6-1.3c2.6,0.3,3.8,1.3,3.6,1.7c-0.2,0.3-2.3,0.9-3.9,0.8c-2-0.5-3.5,0-3.3-1.3
	V261.3z"/>
<path class="st20" d="M455.8,257.1l-0.3,2.6 M466.1,250.4c0,0,2.1,0.9,1.8,1.7c-0.3,0.8-1.8,1.2-1.8,1.2 M449.3,249.7
	c-0.5,0.1-1.1,0.4-1.5,1.6c-0.2,1,1.5,1.7,1.5,1.7"/>
<path class="st20" d="M454.3,255.3c0,0-2.3,2,1.5,2s1.1-1.7,1.1-1.7"/>
<path class="st13" d="M462.4,403.8l6.4-21.1l-17.9-13.2l22.4-0.5l7.2-20.8l7.4,20.7l22.3,0.4l-17.7,13.3l6.4,21l-18.3-12.4
	L462.4,403.8z"/>
<path class="st21" d="M465.4,398.1l5.3-16.7l-14.8-10.5l18.6-0.4l6-16.5l6.2,16.4l18.5,0.4l-14.7,10.5l5.4,16.7l-15.3-9.9
	L465.4,398.1z"/>
<path class="st13" d="M425.7,361.1l6.3-19.9l-17.6-12.5l22-0.5l7.2-19.7l7.3,19.7l22,0.3l-17.5,12.6l6.5,20l-18.2-11.9L425.7,361.1z
	"/>
<path class="st21" d="M428.7,355.8l5.3-15.9l-14.7-9.9l18.4-0.4l6-15.6l6,15.6l18.4,0.3l-14.6,10l5.4,15.8l-15.2-9.4L428.7,355.8z"
	/>
<path class="st13" d="M499.6,361.1l6.4-20l-17.8-12.4l22.3-0.5l7.3-19.7l7.4,19.7l22.3,0.3l-17.8,12.6l6.5,20l-18.3-12L499.6,361.1z
	"/>
<path class="st21" d="M502.6,355.8l5.4-15.9l-15-9.9l18.6-0.4l6-15.6l6.3,15.6l18.6,0.3l-14.8,10l5.4,15.8l-15.3-9.4L502.6,355.8z"
	/>
<path class="st22" d="M373.3,372.6c8,34.5,41.9,60.1,87.5,66.2c58.6,7.8,114.5-21.9,124.8-66.3"/>
<path d="M373.1,377.9l11-6.2l1,2.2l-4.3,2.5l1.5,3.1l4.3-2.4l1,2.2l-11,6.2l-1-2.2l5-2.8l-1.5-3.2l-5,2.9L373.1,377.9 M377.7,387.5
	L388,380l3.5,5.9l-1.7,1.2l-2.2-3.7l-2.4,1.8l2,3.4l-1.5,1.2l-2.1-3.4l-2.9,2l2.3,3.9l-1.7,1.3L377.7,387.5 M384.9,398.6l9-9.2
	l1.6,1.8l-3.5,3.7l2.1,2.5l3.5-3.6l1.6,1.9l-9,9.3l-1.6-1.9l4-4.2l-2-2.6l-4.1,4.2L384.9,398.6 M396.7,404.2l1.5,1.4l2.7-5
	L396.7,404.2 M391,405.9l10.2-8.3l2.3,2.3l-6,12.4l-1.9-1.9l1.6-3l-2-2l-2.5,2.2L391,405.9 M400,414.2l6-9.2l-2.1-1.8l1.2-1.8l6.1,5
	l-1.2,1.8l-2.1-1.7l-6.1,9.2l-1.9-1.5 M404.9,418.2l6.5-11.7l1.9,1.3l-2.5,4.6l2.7,1.8l2.5-4.6l2,1.4l-6.5,11.7l-2-1.3l3-5.4
	l-2.7-1.8l-3,5.3L404.9,418.2 M417,425.9l5.2-12.5l5.9,3l-0.9,2l-3.8-1.9l-1.2,3l3.6,1.8l-0.9,2l-3.5-1.9l-2.3,5.5l-2-1
	 M428.5,423.9c-0.5,1.3-0.9,2.8-1,4.2c0,0.6,0.3,1,0.9,1.3s1,0.2,1.5-0.3c0.4-0.4,1-1.7,1.7-3.8s1-3.5,1-4.2c0-0.6-0.4-1.1-1-1.3
	c-0.5-0.3-1-0.2-1.4,0.3c-0.4,0.4-1,1.7-1.7,3.9 M426.3,423c0.5-1.7,1.3-3.3,2.4-4.8c0.5-0.4,1.1-0.7,1.7-0.7c0.5,0,1.2,0,2,0.4
	s1.2,0.7,1.6,1.1c0.4,0.5,0.7,1,0.8,1.8c0.1,0.5,0,1.2-0.1,2c-0.3,1.2-0.6,2.3-1,3.4l-1.2,3.2c-0.4,0.7-0.8,1.3-1.2,1.6
	c-0.5,0.4-1,0.7-1.6,0.7c-0.6,0.1-1.2,0-2-0.4s-1.3-0.7-1.7-1.1c-0.4-0.5-0.7-1.1-0.8-1.8l0.1-2L426.3,423 M436.9,420.1l2.2,0.8
	l-2.4,8.8c-0.2,0.7-0.3,1.5-0.2,2.2c0.1,0.4,0.5,0.7,1,1c0.6,0.1,1,0,1.4-0.2c0.3-0.3,0.6-1,0.9-2l2.3-8.8l2.2,0.7l-2.4,9
	c-0.2,0.7-0.4,1.4-0.7,2c-0.2,0.3-0.4,0.6-0.7,0.9c-0.5,0.4-1,0.6-1.6,0.6c-0.7,0-1.4-0.1-2-0.3c-1.3-0.4-2.1-1-2.5-1.9
	c-0.4-0.8-0.4-2,0-3.7l2.5-9 M442.8,436.3l2.7-13.4l2.3,0.6l1.3,10.1l1.8-9.3l2,0.5l-2.6,13.4l-2.3-0.6l-1.3-10.2l-1.8,9.4
	L442.8,436.3 M454.8,437l1,0.2h1.2c0.2,0,0.4-0.2,0.5-0.3c0.3-0.3,0.5-0.8,0.7-1.4c0.5-1.9,0.8-3.8,0.8-5.8c0-0.5-0.2-1-0.4-1.4
	c-0.1-0.2-0.2-0.4-0.4-0.5l-1-0.2l-1-0.2l-1.3,9.6 M452.4,438.6l1.9-13.6l3.6,0.7c0.8,0.1,1.3,0.3,1.8,0.5c0.4,0.2,0.7,0.5,1,0.9
	c0.3,0.5,0.5,1.2,0.6,1.9c0,0.7,0,1.8-0.2,3.3c-0.1,1.3-0.4,2.7-0.7,4c-0.2,0.7-0.6,1.4-1,2c-0.3,0.5-0.7,0.8-1.3,1
	c-0.5,0.1-1.4,0-2.6-0.2L452.4,438.6 M461.9,440.2l1.2-13.7l6.3,0.7l-0.2,2.3l-4-0.5l-0.3,3.2l3.8,0.4l-0.2,2.1l-3.8-0.4l-0.3,3.8
	l4.1,0.4l-0.2,2.3L461.9,440.2 M472.3,439.1h2.2c0.2-0.1,0.4-0.3,0.5-0.5c0.2-0.3,0.4-0.8,0.5-1.4c0.1-1,0.2-2,0.2-3v-3
	c-0.1-0.5-0.3-0.9-0.6-1.3c-0.1-0.1-0.3-0.3-0.5-0.3l-1-0.2h-1L472.3,439.1 M470,441l0.5-13.7l3.7,0.1c0.6,0,1.2,0.1,1.7,0.3
	c0.5,0.2,0.8,0.4,1.1,0.8c0.4,0.5,0.8,1.1,0.9,1.8l0.2,3.3c0,1.4-0.2,2.7-0.4,4.1c0,0.7-0.3,1.4-0.7,2c-0.3,0.6-0.7,1-1.2,1.2
	s-1.4,0.3-2.6,0.2L470,441 M483.8,441.2l-0.5-13.7l2.3-0.1l0.5,13.7h-2.3 M489.9,440.8l-0.8-11.4l-2.7,0.2l-0.1-2.2l7.5-0.7l0.2,2.2
	l-2.6,0.3l0.8,11.4L489.9,440.8 M498,426l2.3-0.4l1.4,9c0.2,1.1,0.4,1.8,0.7,2.1c0.3,0.4,0.7,0.5,1.3,0.3c0.6,0,1-0.3,1.1-0.8
	c0.2-0.4,0.2-1.1,0-2.2l-1.4-9l2.2-0.5l1.5,9.4l0.2,2l-0.3,1.2c-0.3,0.5-0.7,1-1.2,1.3c-0.5,0.3-1.2,0.6-1.8,0.7
	c-1.4,0.3-2.4,0.1-3.1-0.4c-0.7-0.6-1.2-1.7-1.4-3.4L498,426 M510.3,429.5l1-0.3c0.6-0.2,1-0.4,1.3-0.8c0.2-0.4,0.2-1,0-1.7
	c0-0.7-0.3-1.2-0.7-1.4c-0.3-0.2-0.8-0.3-1.5,0l-1,0.2L510.3,429.5 M509.8,437.5l-3-13.3l4-1c1.1-0.3,2-0.3,2.7,0.2
	c0.6,0.4,1.1,1.3,1.4,2.6c0.3,1.4,0.2,2.4-0.2,3.2c-0.4,0.8-1.2,1.4-2.3,1.7l-1.7,0.4l1.3,5.7l-2.2,0.6 M518.6,427.9
	c0.3,1.4,0.8,2.7,1.5,4c0.4,0.4,0.9,0.5,1.5,0.3s1-0.6,1-1.2s-0.2-2-0.9-4.2s-1-3.5-1.5-4c-0.3-0.5-0.8-0.6-1.4-0.4
	c-0.6,0.2-1,0.7-1,1.3C517.7,424.3,518,425.7,518.6,427.9 M516.3,428.7c-0.4-1.4-0.6-2.5-0.7-3.4c-0.1-0.7-0.1-1.3,0-2
	c0.2-0.8,0.4-1.3,0.8-1.8c0.5-0.5,1.1-0.8,1.8-1c0.6-0.3,1.3-0.4,2-0.3c0.5,0.1,1,0.4,1.6,0.9c0.4,0.3,0.7,0.9,1,1.6
	c0.9,2.1,1.6,4.3,1.9,6.6c0.1,0.7,0.1,1.4,0,2.1c-0.1,0.6-0.4,1.2-0.8,1.7c-0.5,0.5-1.1,0.9-1.8,1.1c-0.8,0.3-1.4,0.4-2,0.3
	c-0.6-0.1-1.1-0.5-1.5-0.9c-0.5-0.5-0.8-1-1.1-1.6C517.1,431.2,516.7,430,516.3,428.7 M527.6,431.8l-4.6-12.7l2.2-1l6.2,7.6
	l-3.2-8.9l2-0.9l4.6,12.7l-2.2,1l-6.2-7.6l3.2,9L527.6,431.8 M541.9,424.8l-4.8-10.1l-2.3,1.3l-1-2l6.7-3.9l1,2l-2.3,1.4l4.8,10.1
	l-2,1.2 M547.4,421.6l-6.6-11.6l2-1.4l2.5,4.6l2.7-2l-2.6-4.5l2-1.3l6.5,11.6l-2,1.3l-3-5.2l-2.6,1.8l3,5.3L547.4,421.6
	 M555.6,415.6l-7.4-11l5-4.2l1.3,1.9l-3.3,2.7l1.7,2.5l3-2.5l1.2,1.7l-3,2.5l2,3l3.4-2.7l1.2,1.8l-5,4.3 M562,404l1.6-1.8l0.6,0.6
	c0.5,0.6,1,1,1.2,1c0.4,0,0.7,0,1-0.4c0.4-0.4,0.6-0.8,0.6-1.2c0-0.4-0.2-0.9-0.5-1.2c-0.3-0.2-0.6-0.4-0.9-0.5
	c-0.5-0.1-1-0.1-1.5,0l-1.4,0.3c-0.8,0.2-1.7,0.3-2.6,0.2c-0.6-0.2-1.1-0.5-1.5-1c-0.7-0.7-1.1-1.7-1.1-2.7c0.1-1,0.5-2,1.2-2.7
	c0.8-1,1.7-1.3,2.5-1.3s1.7,0.5,2.6,1.4c0.1,0.1,0.2,0.3,0.3,0.4l-1.6,1.7l-0.2-0.3c-0.3-0.4-0.8-0.7-1.3-0.9c-0.3,0-0.7,0.1-1,0.5
	c-0.3,0.3-0.4,0.6-0.4,1c0,0.3,0.1,0.6,0.4,1c0.3,0.3,1,0.4,2.2,0.2l1.5-0.3c0.8-0.2,1.7-0.3,2.5-0.1c0.6,0.1,1.2,0.6,1.8,1.2
	c0.7,0.8,1.1,1.8,1.1,2.8c-0.1,1.1-0.5,2.1-1.3,2.9c-0.9,1-1.8,1.4-2.6,1.4c-1,0-1.8-0.6-2.7-1.6L562,404 M571.5,400.1l-9.5-8.8
	l4.1-5.4l1.6,1.5l-2.6,3.4l2.2,2l2.4-3.2l1.5,1.4l-2.4,3.2l2.6,2.5l2.6-3.6l1.6,1.5L571.5,400.1 M573.9,387.8l1.1-1.8l-4.8-2.3
	L573.9,387.8 M576.2,393.9l-8.7-10.2l1.7-2.8l11.8,5l-1.4,2.3l-2.9-1.3l-1.5,2.4l2.3,2.5L576.2,393.9 M577.6,382.8l1.1-2.3l0.7,0.4
	c0.7,0.4,1.2,0.6,1.5,0.5c0.3,0,0.6-0.3,0.8-0.7c0.2-0.5,0.3-1,0.2-1.3c0-0.4-0.4-0.7-0.8-1c-0.3-0.2-0.7-0.3-1-0.2
	c-0.3,0-0.8,0.3-1.4,0.6l-1.3,0.8c-0.7,0.5-1.5,0.8-2.4,1c-0.6,0-1.2-0.2-1.7-0.5c-0.9-0.4-1.5-1.2-1.8-2.1c-0.2-1-0.1-2.1,0.4-3
	c0.5-1.1,1.2-1.8,2-2c0.9-0.4,1.8-0.2,2.8,0.4c0.1,0.1,0.3,0.1,0.4,0.2l-1,2.2l-0.3-0.2c-0.6-0.3-1-0.5-1.4-0.4
	c-0.3,0-0.6,0.3-0.9,0.8c-0.1,0.4-0.2,0.7,0,1c0,0.4,0.2,0.6,0.6,0.8c0.4,0.3,1.2,0.1,2.2-0.5l1.3-0.8c1-0.6,1.8-1,2.4-1
	c0.6,0,1.3,0.2,2,0.6c1,0.5,1.6,1.3,1.9,2.2c0.2,1,0,2-0.5,3.2c-0.5,1.3-1.2,2-2,2.3c-1,0.3-2,0-3.1-0.6c-0.2-0.1-0.4-0.3-0.6-0.4"
	/>
</svg>
